PathFileType	4	(X/Y/Z)	C:\Users\italobelli\Desktop\GitHub\PTbot_officialCBL\Personal_Results\SHRUG23_noisy1.trc
DataRate	CameraRate	NumFrames	NumMarkers	Units	OrigDataRate	OrigDataStartFrame	OrigNumFrames
108.909091	108.909091	17	9	m	108.909091	451	600
Frame#	Time		gu		centelbow		EpL		centpxt8		centijc7		ij		ts		aa		ai
			X1	Y1	Z1	X2	Y2	Z2	X3	Y3	Z3	X4	Y4	Z4	X5	Y5	Z5	X6	Y6	Z6	X7	Y7	Z7	X8	Y8	Z8	X9	Y9	Z9

451	4.1319	-0.10225	-0.012189	0.16182	-0.13998	-0.26325	0.17885	-0.12434	-0.25983	0.2068	-0.046816	-0.15316	-0.008669	-0.046816	0.031938	-0.008669	0	0	0	-0.14018	0.03361	0.044194	-0.12627	0.02644	0.16243	-0.16693	-0.076722	0.04583
452	4.1411	-0.10227	-0.012205	0.16186	-0.13993	-0.26321	0.17886	-0.1243	-0.2598	0.20681	-0.046816	-0.15316	-0.008669	-0.046816	0.031938	-0.008669	0	0	0	-0.14015	0.033633	0.044199	-0.12625	0.026459	0.16244	-0.16689	-0.0767	0.045824
453	4.1503	-0.10228	-0.012222	0.16191	-0.13988	-0.26318	0.17886	-0.12426	-0.25976	0.20681	-0.046816	-0.15316	-0.008669	-0.046816	0.031938	-0.008669	0	0	0	-0.14011	0.033658	0.044203	-0.12624	0.026479	0.16244	-0.16685	-0.076678	0.045819
454	4.1594	-0.10229	-0.012239	0.16196	-0.13983	-0.26314	0.17886	-0.12422	-0.25973	0.20682	-0.046816	-0.15316	-0.008669	-0.046816	0.031938	-0.008669	0	0	0	-0.14008	0.033682	0.044208	-0.12622	0.026499	0.16245	-0.16682	-0.076655	0.045814
455	4.1686	-0.1023	-0.012256	0.16201	-0.13978	-0.26311	0.17886	-0.12419	-0.2597	0.20683	-0.046816	-0.15316	-0.008669	-0.046816	0.031938	-0.008669	0	0	0	-0.14005	0.033707	0.044213	-0.1262	0.026519	0.16246	-0.16678	-0.076632	0.045809
456	4.1778	-0.1023	-0.012273	0.16206	-0.13973	-0.26307	0.17886	-0.12415	-0.25966	0.20683	-0.046816	-0.15316	-0.008669	-0.046816	0.031938	-0.008669	0	0	0	-0.14001	0.033732	0.044219	-0.12618	0.026539	0.16246	-0.16674	-0.076609	0.045804
457	4.187	-0.10231	-0.01229	0.16211	-0.13969	-0.26303	0.17887	-0.12412	-0.25963	0.20684	-0.046816	-0.15316	-0.008669	-0.046816	0.031938	-0.008669	0	0	0	-0.13998	0.033757	0.044224	-0.12616	0.026559	0.16247	-0.1667	-0.076585	0.0458
458	4.1962	-0.10232	-0.012307	0.16216	-0.13964	-0.26299	0.17887	-0.12408	-0.25959	0.20684	-0.046816	-0.15316	-0.008669	-0.046816	0.031938	-0.008669	0	0	0	-0.13994	0.033782	0.044229	-0.12614	0.026578	0.16248	-0.16667	-0.076561	0.045796
459	4.2053	-0.10233	-0.012324	0.16221	-0.13959	-0.26296	0.17887	-0.12405	-0.25956	0.20684	-0.046816	-0.15316	-0.008669	-0.046816	0.031938	-0.008669	0	0	0	-0.13991	0.033807	0.044235	-0.12612	0.026598	0.16248	-0.16663	-0.076538	0.045793
460	4.2145	-0.10234	-0.012341	0.16226	-0.13955	-0.26292	0.17886	-0.12401	-0.25952	0.20685	-0.046816	-0.15316	-0.008669	-0.046816	0.031938	-0.008669	0	0	0	-0.13987	0.033832	0.04424	-0.1261	0.026617	0.16249	-0.16659	-0.076514	0.04579
461	4.2237	-0.10234	-0.012358	0.16231	-0.13951	-0.26288	0.17886	-0.12398	-0.25948	0.20685	-0.046816	-0.15316	-0.008669	-0.046816	0.031938	-0.008669	0	0	0	-0.13984	0.033857	0.044246	-0.12608	0.026637	0.1625	-0.16655	-0.07649	0.045787
462	4.2329	-0.10235	-0.012375	0.16236	-0.13946	-0.26284	0.17886	-0.12394	-0.25945	0.20685	-0.046816	-0.15316	-0.008669	-0.046816	0.031938	-0.008669	0	0	0	-0.1398	0.033882	0.044252	-0.12606	0.026656	0.16251	-0.16651	-0.076466	0.045785
463	4.2421	-0.10235	-0.012392	0.16241	-0.13942	-0.2628	0.17886	-0.12391	-0.25941	0.20685	-0.046816	-0.15316	-0.008669	-0.046816	0.031938	-0.008669	0	0	0	-0.13977	0.033906	0.044259	-0.12604	0.026674	0.16251	-0.16648	-0.076442	0.045783
464	4.2513	-0.10236	-0.012408	0.16246	-0.13938	-0.26276	0.17886	-0.12388	-0.25937	0.20685	-0.046816	-0.15316	-0.008669	-0.046816	0.031938	-0.008669	0	0	0	-0.13974	0.033931	0.044265	-0.12602	0.026693	0.16252	-0.16644	-0.076418	0.045782
465	4.2604	-0.10236	-0.012425	0.16251	-0.13934	-0.26272	0.17885	-0.12385	-0.25933	0.20685	-0.046816	-0.15316	-0.008669	-0.046816	0.031938	-0.008669	0	0	0	-0.1397	0.033955	0.044272	-0.126	0.026711	0.16253	-0.1664	-0.076395	0.045782
466	4.2696	-0.10236	-0.012441	0.16255	-0.13931	-0.26268	0.17885	-0.12382	-0.25929	0.20685	-0.046816	-0.15316	-0.008669	-0.046816	0.031938	-0.008669	0	0	0	-0.13967	0.033979	0.044279	-0.12597	0.026728	0.16254	-0.16636	-0.076372	0.045782
467	4.2788	-0.10237	-0.012458	0.1626	-0.13927	-0.26263	0.17885	-0.12379	-0.25925	0.20685	-0.046816	-0.15316	-0.008669	-0.046816	0.031938	-0.008669	0	0	0	-0.13963	0.034002	0.044287	-0.12595	0.026745	0.16254	-0.16633	-0.076349	0.045782
